<svg xmlns="http://www.w3.org/2000/svg" xmlns:xlink="http://www.w3.org/1999/xlink" viewBox="0 0 147.15 147.15"><defs><style>.cls-1,.cls-3,.cls-4,.cls-5,.cls-6,.cls-8{fill:none;}.cls-2{clip-path:url(#clip-path);}.cls-3,.cls-4,.cls-5,.cls-8{stroke:#373535;}.cls-3,.cls-4,.cls-5,.cls-6,.cls-8{stroke-miterlimit:10;}.cls-3{stroke-width:1.68px;}.cls-4{stroke-width:0.67px;}.cls-5{stroke-width:1.01px;}.cls-6{stroke:#ee3338;}.cls-6,.cls-8{stroke-width:0.34px;}.cls-7{fill:#fff;}</style><clipPath id="clip-path" transform="translate(-1.42 -1.42)"><rect class="cls-1" width="150" height="150"/></clipPath></defs><title>Restocking</title><g id="Layer_2" data-name="Layer 2"><g id="Layer_1-2" data-name="Layer 1"><g class="cls-2"><g class="cls-2"><rect class="cls-3" x="0.84" y="0.84" width="145.47" height="145.47" rx="18.15"/><rect class="cls-4" x="77.3" y="9.08" width="2.42" height="132.92"/><rect class="cls-5" x="14.11" y="61.38" width="44.04" height="61.76"/><rect class="cls-5" x="9.3" y="54.8" width="53.66" height="5.31"/><rect class="cls-5" x="8.16" y="124.4" width="55.93" height="9.81"/><path class="cls-5" d="M9.74,136.9a4.49,4.49,0,0,0-.45,2,4.56,4.56,0,1,0,9.11,0,4.63,4.63,0,0,0-.45-2Z" transform="translate(-1.42 -1.42)"/><path class="cls-5" d="M56.86,136.9a4.49,4.49,0,0,0-.45,2,4.56,4.56,0,1,0,9.11,0,4.49,4.49,0,0,0-.46-2Z" transform="translate(-1.42 -1.42)"/><path class="cls-4" d="M64.38,51.83a3.78,3.78,0,1,1-3.78-3.78A3.78,3.78,0,0,1,64.38,51.83Z" transform="translate(-1.42 -1.42)"/><path class="cls-4" d="M62.38,48.05A3.81,3.81,0,0,1,64,49.47l8-17.19a3.78,3.78,0,0,1-3.71-1.73l-8,17.18A3.84,3.84,0,0,1,62.38,48.05Z" transform="translate(-1.42 -1.42)"/><path class="cls-4" d="M75.38,27.94a3.78,3.78,0,1,1-3.78-3.78A3.78,3.78,0,0,1,75.38,27.94Z" transform="translate(-1.42 -1.42)"/><path class="cls-4" d="M49.88,25.33a3.77,3.77,0,0,1-.78,2L68,29a3.85,3.85,0,0,1-.43-2.1,3.77,3.77,0,0,1,.79-2l-18.9-1.65A3.71,3.71,0,0,1,49.88,25.33Z" transform="translate(-1.42 -1.42)"/><circle class="cls-4" cx="45.86" cy="23.56" r="2.21"/><path class="cls-4" d="M48.26,30.27l.44-2.47-3.9-.69-.43,2.48a9.27,9.27,0,0,0-.7,2.3,9.5,9.5,0,0,0-.13,2.4v.07l1.36.23.43-2.46,1.16.2-.44,2.47,1.36.24s0,0,0-.06a9.4,9.4,0,0,0,.7-2.3A9.6,9.6,0,0,0,48.26,30.27Z" transform="translate(-1.42 -1.42)"/><polygon class="cls-6" points="44.81 31.11 43.9 36.28 43.49 37.53 43.12 37.46 43.17 36.15 44.08 30.98 44.81 31.11"/><rect class="cls-4" x="133.52" y="8.95" width="2.42" height="132.92"/><line class="cls-4" x1="79.72" y1="93.26" x2="133.52" y2="93.26"/><line class="cls-4" x1="79.72" y1="61.81" x2="133.52" y2="61.81"/><line class="cls-4" x1="79.72" y1="30.36" x2="133.52" y2="30.36"/><path class="cls-7" d="M26.22,45.13V55.54H19.28V45.13a5.38,5.38,0,0,1,2.17-4.67v-.67h2.6v.67a5.4,5.4,0,0,1,2.17,4.67" transform="translate(-1.42 -1.42)"/><path class="cls-8" d="M26.22,45.13V55.54H19.28V45.13a5.38,5.38,0,0,1,2.17-4.67v-.67h2.6v.67A5.4,5.4,0,0,1,26.22,45.13Z" transform="translate(-1.42 -1.42)"/><rect class="cls-7" x="19.59" y="37.19" width="3.47" height="1.17"/><rect class="cls-8" x="19.59" y="37.19" width="3.47" height="1.17"/><path class="cls-7" d="M96.31,83.94V94.35H89.37V83.94a5.36,5.36,0,0,1,2.16-4.66V78.6h2.61v.68a5.37,5.37,0,0,1,2.17,4.66" transform="translate(-1.42 -1.42)"/><path class="cls-8" d="M96.31,83.94V94.35H89.37V83.94a5.36,5.36,0,0,1,2.16-4.66V78.6h2.61v.68A5.37,5.37,0,0,1,96.31,83.94Z" transform="translate(-1.42 -1.42)"/><rect class="cls-7" x="89.68" y="76" width="3.47" height="1.17"/><rect class="cls-8" x="89.68" y="76" width="3.47" height="1.17"/><rect class="cls-7" x="27.89" y="38.44" width="5.55" height="15.75"/><rect class="cls-8" x="27.89" y="38.44" width="5.55" height="15.75"/><rect class="cls-7" x="27.89" y="35.38" width="5.55" height="3.06"/><rect class="cls-8" x="27.89" y="35.38" width="5.55" height="3.06"/><rect class="cls-7" x="36.37" y="38.44" width="11.44" height="15.75"/><rect class="cls-8" x="36.37" y="38.44" width="11.44" height="15.75"/><rect class="cls-7" x="41.38" y="38.44" width="1.42" height="2.15"/><rect class="cls-8" x="41.38" y="38.44" width="1.42" height="2.15"/><rect class="cls-7" x="104.02" y="77.31" width="5.55" height="15.75"/><rect class="cls-8" x="104.02" y="77.31" width="5.55" height="15.75"/><rect class="cls-7" x="104.02" y="74.25" width="5.55" height="3.06"/><rect class="cls-8" x="104.02" y="74.25" width="5.55" height="3.06"/><rect class="cls-7" x="118.7" y="77.17" width="11.44" height="15.75"/><rect class="cls-8" x="118.7" y="77.17" width="11.44" height="15.75"/><rect class="cls-7" x="123.71" y="77.17" width="1.42" height="2.15"/><rect class="cls-8" x="123.71" y="77.17" width="1.42" height="2.15"/><path class="cls-7" d="M130,52.39V62.8h-7V52.39a5.4,5.4,0,0,1,2.17-4.67v-.67h2.61v.67A5.4,5.4,0,0,1,130,52.39" transform="translate(-1.42 -1.42)"/><path class="cls-8" d="M130,52.39V62.8h-7V52.39a5.4,5.4,0,0,1,2.17-4.67v-.67h2.61v.67A5.4,5.4,0,0,1,130,52.39Z" transform="translate(-1.42 -1.42)"/><rect class="cls-7" x="123.4" y="44.45" width="3.47" height="1.17"/><rect class="cls-8" x="123.4" y="44.45" width="3.47" height="1.17"/><path class="cls-7" d="M121.13,52.39V62.8h-6.94V52.39a5.38,5.38,0,0,1,2.17-4.67v-.67H119v.67a5.4,5.4,0,0,1,2.17,4.67" transform="translate(-1.42 -1.42)"/><path class="cls-8" d="M121.13,52.39V62.8h-6.94V52.39a5.38,5.38,0,0,1,2.17-4.67v-.67H119v.67A5.4,5.4,0,0,1,121.13,52.39Z" transform="translate(-1.42 -1.42)"/><rect class="cls-7" x="114.5" y="44.45" width="3.47" height="1.17"/><rect class="cls-8" x="114.5" y="44.45" width="3.47" height="1.17"/><rect class="cls-7" x="82.22" y="45.64" width="11.44" height="15.75"/><rect class="cls-8" x="82.22" y="45.64" width="11.44" height="15.75"/><rect class="cls-7" x="87.23" y="45.64" width="1.42" height="2.15"/><rect class="cls-8" x="87.23" y="45.64" width="1.42" height="2.15"/><rect class="cls-7" x="97.49" y="45.62" width="11.44" height="15.75"/><rect class="cls-8" x="97.49" y="45.62" width="11.44" height="15.75"/><rect class="cls-7" x="102.5" y="45.62" width="1.42" height="2.15"/><rect class="cls-8" x="102.5" y="45.62" width="1.42" height="2.15"/><rect class="cls-7" x="122.36" y="14.38" width="5.55" height="15.75"/><rect class="cls-8" x="122.36" y="14.38" width="5.55" height="15.75"/><rect class="cls-7" x="122.36" y="11.32" width="5.55" height="3.06"/><rect class="cls-8" x="122.36" y="11.32" width="5.55" height="3.06"/><rect class="cls-7" x="84.46" y="14.23" width="5.55" height="15.75"/><rect class="cls-8" x="84.46" y="14.23" width="5.55" height="15.75"/><rect class="cls-7" x="84.46" y="11.18" width="5.55" height="3.06"/><rect class="cls-8" x="84.46" y="11.18" width="5.55" height="3.06"/><path class="cls-7" d="M103.22,21.17V31.58H96.28V21.17a5.4,5.4,0,0,1,2.17-4.67v-.68h2.6v.68a5.4,5.4,0,0,1,2.17,4.67" transform="translate(-1.42 -1.42)"/><path class="cls-8" d="M103.22,21.17V31.58H96.28V21.17a5.4,5.4,0,0,1,2.17-4.67v-.68h2.6v.68A5.4,5.4,0,0,1,103.22,21.17Z" transform="translate(-1.42 -1.42)"/><rect class="cls-7" x="96.59" y="13.23" width="3.47" height="1.17"/><rect class="cls-8" x="96.59" y="13.23" width="3.47" height="1.17"/><rect class="cls-7" x="106.36" y="14.27" width="11.44" height="15.75"/><rect class="cls-8" x="106.36" y="14.27" width="11.44" height="15.75"/><rect class="cls-7" x="111.37" y="14.27" width="1.42" height="2.15"/><rect class="cls-8" x="111.37" y="14.27" width="1.42" height="2.15"/></g></g></g></g></svg>